<svg preserveAspectRatio="none" width="100%" height="100%" overflow="visible" style="display: block;" viewBox="0 0 412.465 471.227" fill="none" xmlns="http://www.w3.org/2000/svg">
<g id="Vector" opacity="0.2" style="mix-blend-mode:overlay">
<path d="M223.007 134.493L258.515 113.322C267.023 108.245 269.979 98.5788 269.903 89.1473L269.551 45.6551C269.489 37.8909 264.267 29.7615 257.778 25.9517L220.348 4.00239C211.543 -1.1577 201.451 -1.42638 192.515 3.76816L158.144 23.7472C148.982 29.0726 142.678 37.6291 142.712 48.4453L142.85 93.3567C142.871 100.921 146.784 108.94 153.508 112.957L189.691 134.569C200.493 141.024 211.895 141.1 223 134.479L223.007 134.493ZM284.997 299.602L285.307 341.365C285.362 349.226 289.958 358.168 296.854 362.171L337.811 385.953C345.086 390.176 354.593 389.073 361.531 385.036L399.518 362.915C406.573 358.802 412.009 350.349 412.084 341.916L412.463 299.299C412.567 287.863 406.78 278.603 397.169 272.878L378.134 261.539C368.144 255.586 363.701 243.392 364.982 231.79C366.188 220.898 373.573 212.039 383.501 206.431L397.176 198.708C405.608 193.948 412.208 185.453 412.208 175.209L412.222 130.531C412.222 119.557 404.981 111.662 396.156 106.515L360.49 85.744C353.642 81.7551 344.528 81.2798 337.425 85.4754L296.502 109.65C280.939 118.84 286.23 140.583 284.859 156.497C283.254 175.188 262.965 189.339 245.053 183.221C227.506 177.22 213.81 157.303 191.413 170.124L170.456 182.119C161.61 187.182 150.993 184.867 141.989 179.501C113.247 162.381 140.026 123.752 115.741 109.333L77.2777 86.5019C69.0726 81.6311 59.2898 81.4038 51.0915 86.2332L13.7859 108.217C5.7874 112.929 0.234614 121.603 0.193278 131.11L0.000377689 172.425C-0.0547368 184.103 5.92518 193.307 15.9216 198.949L31.2572 207.602C40.8471 213.017 46.8821 222.648 47.7019 233.01C48.5631 243.881 44.7258 255.428 35.2185 261.104L14.3853 273.547C6.71745 278.128 0.324175 286.271 0.269061 295.799L0.0486028 338.471C-0.00651162 349.832 6.02163 358.94 15.6184 364.513L48.7147 383.72C57.6639 388.915 67.7912 390.437 77.0848 384.988L114.384 363.142C122.975 358.113 127.425 348.296 127.391 338.547L127.232 296.55C127.149 274.318 104.084 270.922 90.457 259.286C79.4341 249.868 77.0573 233.692 83.6986 220.885C90.085 208.574 103.898 201.643 118.372 205.205C130.904 208.291 141.341 219.211 142.526 233.465C144.132 252.789 137.518 270.171 157.201 281.435L194.003 302.482C201.299 306.65 210.724 307.008 218.102 302.792L253.568 282.516C262.373 277.487 269.524 269.179 269.641 258.666L269.93 233.499C271.012 219.238 281.759 208.133 294.553 205.115C308.979 201.712 322.599 208.636 329.027 221.188C335.324 233.485 333.312 249.2 322.723 258.748C308.29 271.769 284.791 273.085 284.99 299.595L284.997 299.602ZM218.949 467.935L252.376 448.817C261.518 443.588 269.607 435.866 269.607 424.698V378.381C269.593 369.391 263.937 361.117 256.331 356.618L223.4 337.135C213.162 331.079 202.367 329.598 191.785 335.853L154.638 357.81C146.922 362.37 142.795 371.072 142.816 379.787L142.933 425.373C142.96 435.907 151.255 443.547 159.715 448.397L193.059 467.494C200.948 472.014 210.545 472.744 218.949 467.935Z" fill="var(--fill-0, white)"/>
</g>
</svg>
