<svg width="155" height="32" viewBox="0 0 155 32" fill="none" xmlns="http://www.w3.org/2000/svg">
<path d="M8.43236 26.6665C4.87822 26.6665 3.17084 24.7849 3.17084 21.6837V11.8228H0V9.17459H1.91644C2.8224 9.17459 3.31022 8.68677 3.31022 7.78081V3.66917H6.09778V9.17459H9.65191V11.8228H6.13262V22.973C6.13262 23.7396 6.44622 24.0183 7.2128 24.0183H10.1746V26.6665H8.43236Z" fill="#000000"/>
<path d="M12.5184 12.5197C12.5184 10.3593 13.7031 9.17459 15.7589 9.17459H21.2644V11.8228H15.515V26.6665H12.5184V12.5197Z" fill="#000000"/>
<path d="M28.0539 27.1892C24.221 27.1892 21.9909 24.8894 21.9909 21.7883C21.9909 18.722 24.1164 16.8055 28.1932 16.5268L32.6533 16.2132C33.4896 16.1435 33.9077 15.795 33.9077 14.6452C33.9077 12.1712 32.061 11.2304 29.7961 11.2304C27.2176 11.2304 25.6844 12.45 25.4057 14.6452H22.4787C23.0014 10.6729 25.6496 8.65192 29.8658 8.65192C34.2213 8.65192 36.974 10.8123 36.974 15.7253V24.0183V26.6665C35.2318 26.6665 34.3259 26.6665 34.3259 26.6665V23.3563C33.2805 25.7954 31.0505 27.1892 28.0539 27.1892ZM28.472 24.6455C31.6428 24.6455 34.0123 22.4852 34.0123 18.9659V18.3735L28.5765 18.722C26.0329 18.8962 25.0572 19.9067 25.0572 21.6489C25.0572 23.7047 26.3813 24.6455 28.472 24.6455Z" fill="#000000"/>
<path d="M47.1537 27.1892C42.4497 27.1892 39.3137 23.5653 39.3137 17.9205C39.3137 12.2757 42.4497 8.65192 47.1537 8.65192C49.8367 8.65192 51.8577 9.80179 53.1121 11.8925V2.27539H56.1087V26.6665H53.356V23.5653C52.1365 25.8999 50.011 27.1892 47.1537 27.1892ZM47.6764 24.541C50.9169 24.541 53.147 21.9277 53.147 17.9205C53.147 13.9134 50.9169 11.3001 47.6764 11.3001C44.4359 11.3001 42.4149 13.9134 42.4149 17.9205C42.4149 21.9277 44.4359 24.541 47.6764 24.541Z" fill="#000000"/>
<path d="M66.6698 27.1892C61.478 27.1892 58.2026 23.5653 58.2026 17.9554C58.2026 12.3803 61.4431 8.65192 66.6001 8.65192C71.9662 8.65192 75.1719 12.6939 74.4401 18.7917H61.2689C61.4431 22.4155 63.3944 24.6107 66.6698 24.6107C69.4225 24.6107 70.8163 23.0078 71.2344 21.7186H74.231C73.4296 24.7849 70.886 27.1892 66.6698 27.1892ZM61.3386 16.3874H71.4435C71.548 13.565 69.8058 11.1956 66.4607 11.1956C63.6383 11.1956 61.6871 13.1817 61.3386 16.3874Z" fill="#000000"/>
<path d="M151.359 32C152.435 32 153.265 31.7076 153.85 31.1227C154.412 30.5378 154.693 29.7072 154.693 28.631L154.692 3.36898C154.692 2.29278 154.412 1.46223 153.85 0.877339C153.265 0.292446 152.435 0 151.359 0H148.293V2.59692H151.92V16.5284V17.459V18.3074L151.92 29.368H148.293V32H151.359Z" fill="#000000"/>
<path d="M82.9225 32C81.8463 32 81.0158 31.7076 80.4309 31.1227C79.8694 30.5378 79.5886 29.7072 79.5886 28.631L79.5888 3.36898C79.5888 2.29278 79.8696 1.46223 80.4311 0.877339C81.0159 0.292446 81.8465 0 82.9227 0H85.9883V2.59692H82.3612V16.5284V17.459V18.3074L82.361 29.368H85.9881V32H82.9225Z" fill="#000000"/>
<path d="M94.0805 17.0268L88.6287 24.296V26.6663H91.3151L96.6089 19.0812C96.7406 18.8968 96.8064 18.7124 96.8064 18.5281C96.8064 18.3437 96.7801 18.1067 96.7274 17.817C96.6484 17.5272 96.6089 17.2507 96.6089 16.9873C96.6089 16.6713 96.6616 16.4737 96.7669 16.3947C96.8986 16.2894 97.1357 16.2235 97.478 16.1972H97.7941H98.1101C98.4525 16.2235 98.6896 16.2894 98.8213 16.3947C98.9266 16.4737 98.9793 16.6713 98.9793 16.9873C98.9793 17.2507 98.9398 17.5272 98.8608 17.817C98.8081 18.1067 98.7817 18.3437 98.7817 18.5281C98.7817 18.7124 98.8476 18.8968 98.9793 19.0812L104.273 26.6663H106.96V24.296L101.508 17.0268C101.455 16.9478 101.36 16.8903 101.241 16.8507C101.123 16.8111 101.004 16.7964 100.915 16.7898C100.826 16.7832 100.691 16.7898 100.52 16.7898C100.349 16.7898 100.112 16.7766 99.9274 16.7503C99.7431 16.724 99.5982 16.6581 99.4929 16.5528C99.3612 16.4211 99.2953 16.2367 99.2953 15.9997C99.2953 15.7626 99.3612 15.5914 99.4929 15.4861C99.5982 15.3544 99.7431 15.2754 99.9274 15.2491C100.112 15.2227 100.309 15.2095 100.52 15.2095H100.915H100.918C101.023 15.2096 101.152 15.2096 101.271 15.17C101.39 15.1302 101.455 15.0515 101.508 14.9725L106.96 7.70338V5.33301H104.273L98.9793 12.9182C98.8476 13.1026 98.7817 13.2869 98.7817 13.4713C98.7817 13.6556 98.8081 13.8927 98.8608 14.1824C98.9398 14.4458 98.9793 14.7223 98.9793 15.012C98.9793 15.3281 98.9266 15.5388 98.8213 15.6441C98.6896 15.7231 98.4525 15.7758 98.1101 15.8021H97.7941H97.478C97.1357 15.7758 96.8986 15.7231 96.7669 15.6441C96.6616 15.5388 96.6089 15.3281 96.6089 15.012C96.6089 14.7223 96.6484 14.4458 96.7274 14.1824C96.7801 13.8927 96.8064 13.6556 96.8064 13.4713C96.8064 13.2869 96.7406 13.1026 96.6089 12.9182L91.3151 5.33301H88.6287V7.70338L94.0805 14.9725C94.1332 15.0515 94.198 15.1302 94.3176 15.17C94.4361 15.2096 94.5655 15.2096 94.6703 15.2095H94.6731H95.0682C95.2789 15.2095 95.4764 15.2227 95.6608 15.2491C95.8451 15.2754 95.99 15.3544 96.0953 15.4861C96.227 15.5914 96.2929 15.7626 96.2929 15.9997C96.2929 16.2367 96.227 16.4211 96.0953 16.5528C95.99 16.6581 95.8451 16.724 95.6608 16.7503C95.4764 16.7766 95.2394 16.7898 95.0682 16.7898C94.897 16.7898 94.7619 16.7832 94.6731 16.7898C94.5843 16.7964 94.4656 16.8111 94.3468 16.8507C94.228 16.8903 94.1332 16.9478 94.0805 17.0268Z" fill="#000000"/>
<path d="M129.188 22.5501L137.816 12.8135C138.238 12.3386 138.7 12.0351 139.202 11.9032C139.703 11.7449 140.283 11.8108 140.943 12.1011C141.392 12.2858 141.867 12.2462 142.368 11.9824C142.896 11.6921 143.331 11.3095 143.674 10.8346C144.043 10.3332 144.228 9.50544 144.228 9.16242C144.228 8.95132 144.175 8.8062 144.07 8.72704C143.991 8.62149 143.793 8.55553 143.476 8.52914C143.16 8.50276 142.619 8.48956 141.853 8.48956H129.188V5.33301H145.653V9.40969L137.025 19.1858C136.734 19.5025 136.431 19.7531 136.114 19.9378C135.824 20.0961 135.494 20.1753 135.125 20.1753C134.756 20.1753 134.347 20.083 133.898 19.8983C133.449 19.7135 132.961 19.7663 132.434 20.0566C131.932 20.3204 131.497 20.703 131.127 21.2044C130.784 21.6793 130.613 22.4939 130.613 22.8369C130.613 23.048 130.652 23.2063 130.732 23.3119C130.837 23.391 131.048 23.4438 131.365 23.4702C131.681 23.4966 132.222 23.5098 132.988 23.5098H145.653V26.6663H129.188V22.5501Z" fill="#000000"/>
<path d="M116.444 18.5279C116.444 18.2377 116.421 18.0368 116.377 17.8916C116.332 17.7465 116.265 17.6351 116.209 17.5902C116.153 17.5453 116.042 17.5121 115.941 17.4897C115.841 17.4674 115.797 17.4565 115.707 17.4228C115.617 17.3891 115.529 17.3337 115.439 17.2553C115.349 17.177 115.26 17.0544 115.171 16.9204L108.909 7.67728V5.33301H111.458L116.214 12.3658C116.638 12.9686 116.861 13.538 116.884 14.0738C116.906 14.6096 116.445 15.179 116.311 15.7818C116.221 16.206 116.188 16.5297 116.21 16.753C116.255 16.9539 116.411 17.1214 116.679 17.2553C116.947 17.367 117.405 17.4228 118.052 17.4228C118.722 17.4228 119.191 17.367 119.459 17.2553C119.727 17.1214 119.861 16.9539 119.861 16.753C119.883 16.5297 119.849 16.206 119.76 15.7818C119.626 15.112 119.165 14.5315 119.187 14.0403C119.209 13.5491 119.421 13.0133 119.823 12.4328L124.579 5.33301H127.161V7.67728L120.9 16.8869C120.81 17.0209 120.721 17.1214 120.632 17.1883C120.542 17.2553 120.453 17.3111 120.364 17.3558C120.275 17.4004 120.208 17.4339 120.129 17.4563C120.051 17.4786 119.94 17.5344 119.861 17.5902C119.783 17.6461 119.728 17.7463 119.694 17.8916C119.66 18.037 119.661 18.2377 119.661 18.5279C119.661 18.8182 119.661 26.6656 119.661 26.6656H116.444C116.444 26.6656 116.444 18.8182 116.444 18.5279Z" fill="#000000"/>
</svg>
