<svg preserveAspectRatio="none" width="100%" height="100%" overflow="visible" style="display: block;" viewBox="0 0 865 1347" fill="none" xmlns="http://www.w3.org/2000/svg">
<g id="Agent Illustration" clip-path="url(#clip0_196_266)">
<path id="Vector" d="M0 0H865V445.615C825.027 465.47 769.977 461.763 736.254 432.043C696.331 396.876 644.8 380.867 593.878 400.558C578.458 406.525 564.117 413.241 551.593 424.451C513.411 458.666 457.345 466.232 412.113 441.158C404.264 436.804 395.626 432.018 388.793 426.152C358.194 399.923 320.025 387.367 279.251 393.334C268.366 394.934 258.027 397.689 248.208 403.021C229.473 411.07 213.316 421.886 199.052 435.979C148.244 472.847 79.0821 466.004 37.0896 420.782C-4.81402 375.649 -6.6431 307.817 32.1104 259.282C37.5214 252.502 43.0849 246.802 49.7788 241.698C95.9502 206.506 156.945 206.747 203.015 241.444C212.897 248.884 224.1 254.94 234.515 261.427C283.227 291.808 345.149 281.931 382.709 240.746C420.268 199.562 423.647 135.906 389.428 90.7352C351.5 40.6639 281.805 29.9362 229.409 64.557C218.879 71.5141 209.264 78.192 199.026 86.1394C158.393 117.688 102.479 122.88 58.2001 95.2929C50.3377 90.3925 43.4151 85.2 35.8321 79.4108C32.9106 77.1764 30.1162 71.9966 27.525 68.8227C11.3174 48.9668 1.65125 25.2134 0 0Z" fill="var(--fill-0, black)"/>
<path id="Vector_2" d="M865 1118.48V1347H76.2115L77.5071 1345.81L126.409 1345.58C80.1617 1319.86 55.6344 1269.65 65.1989 1216.9C73.9124 1168.79 112.552 1130.19 162.432 1120.5L187.645 1115.61L213.811 1110.02C266.562 1094.75 301.111 1045.45 297.568 991.27C294.075 937.809 254.419 894.339 200.83 884.5L160.26 877.048C98.7446 865.762 56.841 809.723 61.998 748.417C67.1677 686.919 118.039 639.044 180.088 638.029C240.828 637.038 293.744 681.422 301.696 743.364C304.376 764.311 307.628 783.482 316.748 803.261C331.253 834.759 358.118 858.246 391.689 867.895C406.398 872.122 419.874 874.852 435.218 876.604C489.252 882.786 533.62 923.895 541.457 978.079C543.794 994.279 546.462 1008.51 551.364 1024.25C560.777 1054.56 579.131 1080.94 607.951 1096.21C636.772 1111.48 671.486 1118.97 705.464 1118.89L865 1118.45V1118.48Z" fill="var(--fill-0, black)"/>
<path id="Vector_3" d="M865 728.726V1001.68C853.975 1000.72 841.501 999.751 831.264 993.238C817.711 984.63 806.203 970.272 803.574 954.224L791.38 879.841L786.108 862.321C780.075 842.262 769.914 825.441 756.386 809.254C739.315 788.814 716.21 775.458 689.79 770.316C675.081 767.46 661.566 766.038 646.718 766.711C583.843 769.555 531.397 724.066 525.376 662.48C519.457 602.037 561.932 547.027 622.152 537.505C682.283 527.996 739.988 566.857 753.223 627.288L756.869 639.996L762.47 653.492C769.977 671.57 779.554 688.379 794.403 701.443C814.243 718.887 839.241 729.081 864.987 728.713L865 728.726Z" fill="var(--fill-0, black)"/>
</g>
<defs>
<clipPath id="clip0_196_266">
<rect width="865" height="1347" fill="white"/>
</clipPath>
</defs>
</svg>
