<svg preserveAspectRatio="none" width="100%" height="100%" overflow="visible" style="display: block;" viewBox="0 0 1390.2 330.506" fill="none" xmlns="http://www.w3.org/2000/svg">
<path id="LineGraph" d="M1377.38 129.945C1401.04 145.65 1388.15 171.091 1359.75 171.091H716.014C703.042 171.091 690.856 177.328 682.689 187.407C654.584 222.09 597.327 287.03 572.669 314.852C565.18 323.301 554.502 328.106 543.212 328.198L323.043 330.005C319.214 330.036 315.599 329.577 311.925 328.498C278.644 318.726 98.4645 264.486 13.2916 211.239C-10.789 196.185 1.58702 161.091 29.9859 161.091H369.235V161.584H370.062C375.388 161.584 380.315 164.409 383.006 169.005L388.737 178.793C391.787 184.002 397.371 187.203 403.408 187.203H476.681C482.718 187.203 488.302 184.002 491.352 178.793L497.083 169.005C499.774 164.409 504.701 161.584 510.027 161.584H510.854V161.091L653.721 161.091C666.694 161.091 678.865 154.812 686.823 144.567C714.774 108.582 769.144 43.3782 793.177 14.6924C800.753 5.64982 811.901 0.500059 823.698 0.5C1032.23 0.500827 1191.93 6.86108 1377.38 129.945Z" stroke="var(--stroke-0, white)" stroke-opacity="0.2"/>
</svg>
