<svg preserveAspectRatio="none" width="100%" height="100%" overflow="visible" style="display: block;" viewBox="0 0 143.469 30.0002" fill="none" xmlns="http://www.w3.org/2000/svg">
<g id="Logo">
<g id="Union">
<path d="M1.67683 1.79091C3.91266 -0.444912 7.53845 -0.444912 9.77428 1.79091C10.6794 2.69603 11.2175 3.82911 11.3898 5.0052C11.6554 6.81924 11.8805 8.81377 13.1769 10.1102L19.8922 16.8244C21.1795 18.1116 23.1559 18.3429 24.9563 18.6126C25.0333 18.6241 25.11 18.6376 25.1865 18.6523C25.2016 18.6552 25.2165 18.6587 25.2315 18.6617C25.3008 18.6756 25.3699 18.6903 25.4387 18.7067C25.4656 18.7131 25.4924 18.7198 25.5193 18.7266C25.5732 18.7403 25.6268 18.7552 25.6804 18.7705C25.7118 18.7795 25.7433 18.7882 25.7746 18.7977C25.8208 18.8118 25.8667 18.8275 25.9127 18.8427C25.9511 18.8555 25.9896 18.8679 26.0278 18.8815C26.0597 18.8928 26.0912 18.9051 26.123 18.917C26.1945 18.944 26.2658 18.9719 26.3364 19.0018C26.388 19.0236 26.4392 19.0464 26.4902 19.0698C26.5095 19.0786 26.5286 19.0879 26.5478 19.097C26.6117 19.1272 26.6752 19.1585 26.7382 19.1912C26.7563 19.2006 26.7746 19.2098 26.7926 19.2194C26.8509 19.2505 26.9089 19.2825 26.9663 19.3157C26.9862 19.3272 27.0062 19.3385 27.026 19.3502C27.0859 19.3858 27.145 19.4231 27.2038 19.4611C27.2407 19.4849 27.2772 19.5096 27.3137 19.5344C27.3664 19.5701 27.4189 19.6065 27.4706 19.6442C27.4885 19.6573 27.5062 19.6707 27.524 19.684C27.5794 19.7254 27.6341 19.768 27.6883 19.8116C27.7051 19.8251 27.7218 19.8387 27.7385 19.8524C27.7895 19.8945 27.8403 19.9371 27.8902 19.9811C27.9144 20.0025 27.9385 20.0241 27.9624 20.046C28.0264 20.1045 28.0899 20.1641 28.1518 20.226C30.3876 22.4618 30.3876 26.0876 28.1518 28.3234C25.9161 30.5589 22.2912 30.5588 20.0554 28.3234C19.9249 28.193 19.8023 28.0568 19.6871 27.9174C19.6692 27.8958 19.6512 27.8744 19.6337 27.8526C19.5961 27.8057 19.5598 27.758 19.5239 27.7103C19.5045 27.6845 19.4852 27.6588 19.4663 27.6328C19.3627 27.4902 19.2663 27.344 19.1775 27.1944C19.1693 27.1806 19.1616 27.1665 19.1535 27.1526C19.1182 27.092 19.0838 27.0311 19.0509 26.9695C19.0368 26.943 19.0227 26.9166 19.0091 26.89C18.9847 26.8426 18.9619 26.7945 18.939 26.7466C18.9235 26.7142 18.9078 26.6819 18.8929 26.6493C18.7884 26.4198 18.6998 26.185 18.6272 25.9462C18.6163 25.9104 18.606 25.8744 18.5958 25.8384C18.5822 25.7904 18.5694 25.7423 18.5571 25.694C18.5498 25.6654 18.5419 25.6369 18.5351 25.6082C18.5143 25.521 18.4952 25.4335 18.4786 25.3456L18.442 25.1269C18.4392 25.1088 18.4361 25.0907 18.4336 25.0725C18.1673 23.2871 17.9276 21.338 16.6538 20.0638L9.87786 13.2878C9.1601 12.5701 8.10645 13.2794 8.10645 14.2945V17.0246C8.10645 18.2687 8.89462 19.3463 9.77428 20.226C12.0101 22.4618 12.0101 26.0876 9.77428 28.3234C7.53846 30.5592 3.91263 30.5592 1.67683 28.3234C-0.55897 26.0876 -0.558917 22.4618 1.67683 20.226C2.63551 19.2673 3.52567 18.1047 3.52567 16.7489V13.366C3.52567 12.0099 2.63575 10.8462 1.67683 9.88731C-0.558494 7.65148 -0.558744 4.02659 1.67683 1.79091Z" fill="var(--fill-0, #4EAEF9)"/>
<path d="M20.0554 1.67687C22.2912 -0.558953 25.916 -0.558958 28.1518 1.67687C30.3875 3.9127 30.3876 7.53748 28.1518 9.77327C25.916 12.0091 22.2912 12.009 20.0554 9.77327C17.8196 7.53744 17.8196 3.91269 20.0554 1.67687Z" fill="var(--fill-0, #4EAEF9)"/>
</g>
<g id="NickAI">
<path d="M62.9778 23.2921L61.2551 23.5549V4.66435H66.0726V26.5621H59.7953L45.7807 7.67165L47.4741 7.40888V26.5621H42.6858V4.66435H49.1092L62.9778 23.2921Z" fill="var(--fill-0, white)"/>
<path d="M68.0902 9.77384L70.5136 10.241L72.9661 9.77384V26.5621H68.0902V9.77384ZM70.5136 8.05121C69.6376 8.05121 68.9175 7.82737 68.353 7.37968C67.808 6.91253 67.5355 6.29939 67.5355 5.54026C67.5355 4.76168 67.808 4.14854 68.353 3.70085C68.9175 3.2337 69.6376 3.00012 70.5136 3.00012C71.4089 3.00012 72.1291 3.2337 72.6741 3.70085C73.2192 4.14854 73.4917 4.76168 73.4917 5.54026C73.4917 6.29939 73.2192 6.91253 72.6741 7.37968C72.1291 7.82737 71.4089 8.05121 70.5136 8.05121Z" fill="var(--fill-0, white)"/>
<path d="M93.6659 19.7884C93.4713 21.2094 92.9165 22.4648 92.0017 23.5549C91.1063 24.6449 89.9482 25.4916 88.5272 26.095C87.1063 26.6984 85.5199 27.0001 83.7681 27.0001C81.7827 27.0001 80.0309 26.64 78.5126 25.9198C77.0139 25.1802 75.8362 24.1485 74.9798 22.8249C74.1428 21.5013 73.7243 19.9831 73.7243 18.2702C73.7243 16.5378 74.1428 15.0196 74.9798 13.7154C75.8362 12.3918 77.0139 11.3602 78.5126 10.6206C80.0309 9.88089 81.7827 9.51106 83.7681 9.51106C85.5199 9.51106 87.1063 9.8225 88.5272 10.4454C89.9482 11.0488 91.1063 11.8955 92.0017 12.9855C92.9165 14.0561 93.4713 15.3115 93.6659 16.7519H88.79C88.537 15.623 87.953 14.7568 87.0382 14.1534C86.1428 13.5305 85.0528 13.2191 83.7681 13.2191C82.7365 13.2191 81.8314 13.4235 81.0528 13.8322C80.2937 14.2215 79.7097 14.7957 79.301 15.5549C78.8922 16.2945 78.6878 17.1996 78.6878 18.2702C78.6878 19.3213 78.8922 20.2264 79.301 20.9855C79.7097 21.7252 80.2937 22.2994 81.0528 22.7081C81.8314 23.0974 82.7365 23.2921 83.7681 23.2921C85.0723 23.2921 86.172 22.9709 87.0674 22.3286C87.9822 21.6862 88.5564 20.8395 88.79 19.7884H93.6659Z" fill="var(--fill-0, white)"/>
<path d="M99.1306 22.533L97.7583 22.0366L107.627 9.94902H112.941L98.6926 26.5621H94.2546V4.08041H99.1306V22.533ZM102.897 18.4162L106.488 15.6424L113.408 26.5621H107.831L102.897 18.4162Z" fill="var(--fill-0, white)"/>
<path d="M117.054 21.949V17.9198H132.236V21.949H117.054ZM127.944 4.66435L138.192 26.5621H132.908L123.944 6.67895H125.579L116.616 26.5621H111.331L121.579 4.66435H127.944Z" fill="var(--fill-0, white)"/>
<path d="M138.506 4.66435H143.469V26.5621H138.506V4.66435Z" fill="var(--fill-0, white)"/>
</g>
</g>
</svg>
