<svg preserveAspectRatio="none" width="100%" height="100%" overflow="visible" style="display: block;" viewBox="0 0 142.619 28.6191" fill="none" xmlns="http://www.w3.org/2000/svg">
<path id="Subtract" opacity="0.1" d="M142.119 2.5V3H142.619V2.5H142.119ZM141.292 2.5V3V3V2.5ZM128.348 9.9209L127.916 9.66826L127.916 9.66828L128.348 9.9209ZM122.617 19.709L123.049 19.9616L123.049 19.9616L122.617 19.709ZM107.946 28.1191V28.6191H107.946L107.946 28.1191ZM20.002 19.709L19.5705 19.9616L19.5705 19.9616L20.002 19.709ZM14.2715 9.9209L14.703 9.66828L14.703 9.66826L14.2715 9.9209ZM1.32715 2.5L1.32715 2H1.32715V2.5ZM0.5 2.5H0V3H0.5V2.5ZM0.5 0.5V0H0V0.5H0.5ZM142.119 0.5H142.619V0H142.119V0.5ZM142.119 2.5V2H141.292V2.5V3H142.119V2.5ZM141.292 2.5V2C135.788 1.99997 130.697 4.91875 127.916 9.66826L128.348 9.9209L128.779 10.1735C131.381 5.73044 136.143 2.99997 141.292 3V2.5ZM128.348 9.9209L127.916 9.66828L122.186 19.4564L122.617 19.709L123.049 19.9616L128.779 10.1735L128.348 9.9209ZM122.617 19.709L122.186 19.4564C119.225 24.5124 113.805 27.6191 107.946 27.6191L107.946 28.1191L107.946 28.6191C114.16 28.6191 119.909 25.3241 123.049 19.9616L122.617 19.709ZM107.946 28.1191V27.6191H34.6729V28.1191V28.6191H107.946V28.1191ZM34.6729 28.1191V27.6191C28.8139 27.6191 23.3938 24.5124 20.4334 19.4563L20.002 19.709L19.5705 19.9616C22.7103 25.3241 28.4588 28.6191 34.6729 28.6191V28.1191ZM20.002 19.709L20.4334 19.4564L14.703 9.66828L14.2715 9.9209L13.84 10.1735L19.5705 19.9616L20.002 19.709ZM14.2715 9.9209L14.703 9.66826C11.922 4.91875 6.83094 2.00002 1.32715 2L1.32715 2.5L1.32715 3C6.47584 3.00002 11.2385 5.73045 13.84 10.1735L14.2715 9.9209ZM1.32715 2.5V2H0.5V2.5V3H1.32715V2.5ZM0.5 2.5H1V0.5H0.5H0V2.5H0.5ZM0.5 0.5V1H142.119V0.5V0H0.5V0.5ZM142.119 0.5H141.619V2.5H142.119H142.619V0.5H142.119Z" fill="url(#paint0_linear_196_221)"/>
<defs>
<linearGradient id="paint0_linear_196_221" x1="50.0972" y1="13.5496" x2="50.538" y2="15.3928" gradientUnits="userSpaceOnUse">
<stop stop-color="#4ADE80"/>
<stop offset="1" stop-color="#30C5FF"/>
</linearGradient>
</defs>
</svg>
