<svg xmlns="http://www.w3.org/2000/svg" viewBox="-70 -70 1250 1408" fill="currentColor" role="img" aria-label="Swarm Arena">
  <g transform="translate(-251.017288,1439.573390) scale(0.1,-0.1)">
    <path d="M7970 14391 c-75 -11 -164 -38 -224 -68 -113 -57 -1035 -599 -1086&#xA;-638 -157 -121 -260 -278 -295 -451 -24 -118 -18 -1431 7 -1512 38 -124 114&#xA;-247 194 -316 51 -44 1046 -638 1149 -687 212 -99 440 -105 660 -15 79 32&#xA;1021 587 1143 673 111 78 191 210 234 381 22 86 22 96 19 762 -2 531 -5 690&#xA;-17 745 -27 136 -130 304 -236 384 -68 51 -1061 633 -1155 677 -119 56 -274&#xA;81 -393 65z"></path>
    <path d="M4094 12156 c-108 -25 -170 -57 -634 -331 -250 -147 -498 -293 -550&#xA;-324 -141 -83 -252 -197 -313 -321 -85 -173 -82 -136 -82 -900 0 -758 -3 -726&#xA;75 -885 90 -182 181 -262 523 -456 139 -78 273 -156 298 -173 325 -218 462&#xA;-627 339 -1010 -76 -236 -135 -292 -585 -562 -325 -194 -356 -215 -435 -294&#xA;-165 -166 -200 -255 -211 -540 -14 -368 -11 -1138 5 -1222 38 -196 140 -360&#xA;298 -481 82 -62 968 -579 1093 -638 193 -90 406 -103 575 -35 75 31 1125 646&#xA;1189 697 95 76 188 223 233 371 22 72 22 83 26 728 3 697 0 761 -43 876 -73&#xA;193 -189 299 -555 509 -264 152 -363 220 -447 309 -397 417 -244 1137 288&#xA;1356 298 123 653 56 891 -168 85 -81 137 -149 182 -239 84 -173 87 -192 96&#xA;-663 7 -367 9 -412 29 -485 46 -175 145 -314 296 -415 125 -83 1098 -634 1162&#xA;-657 138 -50 301 -53 439 -8 79 26 1114 621 1202 691 140 112 246 272 277 421&#xA;10 46 15 136 16 273 1 451 13 625 46 721 95 275 324 491 598 565 102 28 306&#xA;30 406 5 632 -159 854 -964 392 -1418 -87 -85 -181 -149 -403 -273 -433 -242&#xA;-574 -396 -619 -680 -13 -77 -14 -930 -1 -1225 10 -259 36 -341 156 -495 65&#xA;-83 92 -100 719 -464 649 -377 657 -380 820 -380 195 0 200 3 892 405 519 302&#xA;541 316 618 393 89 91 134 159 173 268 33 92 40 260 41 968 1 551 -2 580 -80&#xA;735 -93 188 -166 250 -585 500 -414 247 -487 318 -565 548 -96 288 -49 586&#xA;129 809 114 142 180 191 505 376 136 77 277 164 314 193 120 96 217 239 260&#xA;385 25 85 33 1334 9 1472 -31 182 -163 370 -341 489 -86 57 -1040 612 -1100&#xA;639 -161 74 -378 73 -525 -1 -99 -50 -1156 -679 -1208 -718 -103 -78 -176&#xA;-209 -214 -382 -17 -77 -21 -147 -28 -490 -7 -362 -9 -407 -28 -470 -107 -362&#xA;-413 -607 -777 -622 -210 -9 -329 35 -699 260 -368 223 -550 273 -782 217&#xA;-115 -27 -151 -45 -509 -250 -176 -101 -349 -195 -385 -208 -279 -102 -723 63&#xA;-910 338 -113 167 -150 335 -150 695 -1 546 -39 716 -194 870 -64 64 -126 104&#xA;-621 397 -302 179 -568 335 -590 346 -122 61 -315 87 -441 58z"></path>
    <path d="M7990 5464 c-111 -19 -153 -29 -205 -50 -117 -48 -1162 -674 -1225&#xA;-734 -102 -98 -168 -226 -196 -380 -16 -89 -20 -1192 -5 -1376 19 -221 128&#xA;-386 361 -544 81 -54 1026 -593 1085 -617 161 -68 375 -67 529 1 62 27 996&#xA;562 1081 619 89 59 234 211 273 284 82 156 76 92 80 884 3 794 3 791 -67 934&#xA;-47 95 -126 194 -202 252 -66 51 -1000 605 -1086 644 -129 60 -330 99 -423 83z"></path>
  </g>
</svg>