<svg
  width="32"
  height="32"
  viewBox="0 0 32 32"
  fill="none"
  xmlns="http://www.w3.org/2000/svg"
>
  <rect width="32" height="32" rx="8" fill="#0892F5" />
  <g clip-path="url(#clip0_1_1)">
    <path
      d="M8.89409 8.95552C10.0865 7.76316 12.0194 7.76318 13.2118 8.95552C13.6946 9.43827 13.9819 10.0424 14.0738 10.6697C14.2155 11.6372 14.3355 12.701 15.0269 13.3924L18.6083 16.9731C19.2949 17.6597 20.3492 17.7831 21.3095 17.9269C21.3202 17.9285 21.3307 17.931 21.3414 17.9327C21.4022 17.9425 21.4628 17.9538 21.523 17.9673C21.5321 17.9693 21.5413 17.971 21.5504 17.9731C21.623 17.99 21.695 18.0101 21.7665 18.0323C21.7702 18.0335 21.7739 18.0345 21.7776 18.0356C21.844 18.0566 21.9097 18.0803 21.9748 18.1059C21.9844 18.1097 21.994 18.1131 22.0035 18.117C22.0654 18.1421 22.1266 18.1697 22.1871 18.199C22.2045 18.2075 22.2218 18.2163 22.2392 18.2251C22.2965 18.2543 22.3533 18.2851 22.4091 18.3181C22.4275 18.3291 22.4455 18.3407 22.4638 18.352C22.5111 18.3814 22.5578 18.4122 22.6038 18.4445C22.6202 18.456 22.637 18.4671 22.6532 18.4789C22.6596 18.4836 22.6658 18.4885 22.6721 18.4933C22.7056 18.5182 22.739 18.5436 22.7717 18.5701C22.7774 18.5747 22.7829 18.5797 22.7886 18.5844C22.8208 18.6108 22.8524 18.6379 22.8837 18.6658C22.8918 18.6731 22.9004 18.6799 22.9084 18.6873C22.9441 18.7197 22.9794 18.7531 23.0139 18.7875C24.2062 19.98 24.2063 21.9135 23.0139 23.1059C21.8215 24.2983 19.888 24.2983 18.6956 23.1059C18.6611 23.0715 18.6278 23.0361 18.5953 23.0005C18.5871 22.9915 18.5792 22.9821 18.5712 22.9731C18.5472 22.9461 18.5238 22.9187 18.5009 22.8911C18.4902 22.8782 18.4794 22.8656 18.469 22.8527C18.4464 22.8244 18.4247 22.7955 18.4032 22.7667C18.3978 22.7595 18.3922 22.7525 18.387 22.7452C18.375 22.729 18.364 22.7122 18.3524 22.6957C18.3158 22.6434 18.2806 22.5903 18.2476 22.5363C18.2429 22.5285 18.2373 22.5213 18.2326 22.5135C18.198 22.4556 18.1661 22.3965 18.1356 22.337C18.1249 22.3161 18.1146 22.295 18.1044 22.2739C18.076 22.2151 18.0494 22.1557 18.025 22.0955C18.0211 22.086 18.0176 22.0764 18.0139 22.0669C17.9592 21.9281 17.9146 21.7863 17.8811 21.6424C17.879 21.6333 17.8772 21.6241 17.8752 21.615C17.858 21.5379 17.8428 21.4605 17.8316 21.3826C17.689 20.4275 17.5631 19.3823 16.8811 18.7003L13.2671 15.087C12.8843 14.7041 12.3225 15.0821 12.3225 15.6236V17.0801C12.3225 17.7435 12.7426 18.3185 13.2118 18.7875C14.4042 19.98 14.4042 21.9135 13.2118 23.1059C12.0194 24.2981 10.0865 24.2981 8.89409 23.1059C7.70164 21.9135 7.70164 19.98 8.89409 18.7875C9.40527 18.2764 9.87977 17.6563 9.87977 16.9335V15.1259C9.87977 14.4035 9.40501 13.7847 8.89409 13.2739C7.70166 12.0814 7.70165 10.148 8.89409 8.95552ZM18.6956 8.89432C19.888 7.7019 21.8214 7.70188 23.0139 8.89432C24.2062 10.0868 24.2063 12.0203 23.0139 13.2127C21.8215 14.4051 19.888 14.405 18.6956 13.2127C17.5031 12.0202 17.5031 10.0868 18.6956 8.89432Z"
      fill="#ffffff"
    />
  </g>
  <defs>
    <clipPath id="clip0_1_1">
      <rect width="16" height="16" transform="translate(8 8)" fill="white" />
    </clipPath>
  </defs>
</svg>
