<svg fill="#FFFFFF" xmlns="http://www.w3.org/2000/svg" width="107.503" height="25.600" viewBox="0 0 107.503 25.600">
  <path d="M 21.645 21.645 L 19.807 21.925 L 19.807 1.775 L 24.946 1.775 L 24.946 25.133 L 18.25 25.133 L 3.301 4.983 L 5.108 4.703 L 5.108 25.133 L 0 25.133 L 0 1.775 L 6.852 1.775 L 21.645 21.645 Z" fill="#FFFFFF" fill-rule="nonzero"></path>
  <path d="M 27.098 7.225 L 29.683 7.724 L 32.299 7.225 L 32.299 25.133 L 27.098 25.133 L 27.098 7.225 Z M 29.683 5.388 C 28.749 5.388 27.981 5.149 27.379 4.672 C 26.797 4.173 26.506 3.519 26.506 2.71 C 26.506 1.879 26.797 1.225 27.379 0.747 C 27.981 0.249 28.749 0 29.683 0 C 30.638 0 31.406 0.249 31.988 0.747 C 32.569 1.225 32.86 1.879 32.86 2.71 C 32.86 3.519 32.569 4.173 31.988 4.672 C 31.406 5.149 30.638 5.388 29.683 5.388 Z" fill="#FFFFFF" fill-rule="nonzero"></path>
  <path d="M 54.379 17.908 C 54.172 19.423 53.58 20.762 52.604 21.925 C 51.649 23.088 50.414 23.991 48.898 24.635 C 47.382 25.278 45.69 25.6 43.821 25.6 C 41.704 25.6 39.835 25.216 38.216 24.448 C 36.617 23.659 35.361 22.558 34.447 21.147 C 33.554 19.735 33.108 18.115 33.108 16.288 C 33.108 14.44 33.554 12.821 34.447 11.43 C 35.361 10.018 36.617 8.917 38.216 8.129 C 39.835 7.34 41.704 6.945 43.821 6.945 C 45.69 6.945 47.382 7.277 48.898 7.942 C 50.414 8.585 51.649 9.488 52.604 10.651 C 53.58 11.793 54.172 13.132 54.379 14.669 L 49.178 14.669 C 48.908 13.464 48.285 12.541 47.31 11.897 C 46.354 11.233 45.192 10.9 43.821 10.9 C 42.721 10.9 41.756 11.118 40.925 11.554 C 40.115 11.97 39.492 12.582 39.056 13.392 C 38.62 14.181 38.402 15.146 38.402 16.288 C 38.402 17.409 38.62 18.375 39.056 19.185 C 39.492 19.974 40.115 20.586 40.925 21.022 C 41.756 21.437 42.721 21.645 43.821 21.645 C 45.213 21.645 46.386 21.302 47.341 20.617 C 48.317 19.932 48.929 19.029 49.178 17.908 L 54.379 17.908 Z" fill="#FFFFFF" fill-rule="nonzero"></path>
  <path d="M 60.208 20.835 L 58.744 20.306 L 69.271 7.412 L 74.939 7.412 L 59.741 25.133 L 55.007 25.133 L 55.007 1.152 L 60.208 1.152 L 60.208 20.835 Z M 64.226 16.444 L 68.056 13.485 L 75.437 25.133 L 69.489 25.133 L 64.226 16.444 Z" fill="#FFFFFF" fill-rule="nonzero"></path>
  <path d="M 79.326 20.212 L 79.326 15.914 L 95.521 15.914 L 95.521 20.212 L 79.326 20.212 Z M 90.943 1.775 L 101.874 25.133 L 96.237 25.133 L 86.676 3.924 L 88.42 3.924 L 78.859 25.133 L 73.222 25.133 L 84.154 1.775 L 90.943 1.775 Z" fill="#FFFFFF" fill-rule="nonzero"></path>
  <path d="M 102.209 1.775 L 107.503 1.775 L 107.503 25.133 L 102.209 25.133 L 102.209 1.775 Z" fill="#FFFFFF" fill-rule="nonzero"></path>
</svg>