<svg preserveAspectRatio="none" width="100%" height="100%" overflow="visible" style="display: block;" viewBox="0 0 92.1524 101.458" fill="none" xmlns="http://www.w3.org/2000/svg">
<g id="Polygon 1">
<path d="M38.0762 2.14359C43.0266 -0.714532 49.1258 -0.714531 54.0762 2.14359L84.1524 19.5081C89.1028 22.3662 92.1524 27.6483 92.1524 33.3645V68.0935C92.1524 73.8098 89.1028 79.0918 84.1524 81.9499L54.0762 99.3144C49.1258 102.173 43.0266 102.173 38.0762 99.3144L8 81.9499C3.04958 79.0918 0 73.8098 0 68.0935V33.3645C0 27.6483 3.04958 22.3662 8 19.5081L38.0762 2.14359Z" fill="var(--fill-0, #E75218)"/>
<path d="M38.0762 2.14359C43.0266 -0.714532 49.1258 -0.714531 54.0762 2.14359L84.1524 19.5081C89.1028 22.3662 92.1524 27.6483 92.1524 33.3645V68.0935C92.1524 73.8098 89.1028 79.0918 84.1524 81.9499L54.0762 99.3144C49.1258 102.173 43.0266 102.173 38.0762 99.3144L8 81.9499C3.04958 79.0918 0 73.8098 0 68.0935V33.3645C0 27.6483 3.04958 22.3662 8 19.5081L38.0762 2.14359Z" fill="url(#paint0_linear_358_35149)"/>
</g>
<defs>
<linearGradient id="paint0_linear_358_35149" x1="65.53" y1="-33.7641" x2="138.444" y2="46.3589" gradientUnits="userSpaceOnUse">
<stop stop-color="#F98051"/>
<stop offset="1" stop-color="#E75218"/>
</linearGradient>
</defs>
</svg>
